<mxfile host="65bd71144e" modified="2020-12-06T12:07:59.325Z" agent="5.0 (Windows NT 10.0; Win64; x64) AppleWebKit/537.36 (KHTML, like Gecko) Code/1.51.1 Chrome/83.0.4103.122 Electron/9.3.3 Safari/537.36" version="13.10.0" etag="WkE-0VJFORfe2XEL3Z_K" type="embed">
    <diagram id="iUhl4y-wEB996oQhHXeB" name="Page-1">
        <mxGraphModel dx="1098" dy="486" grid="1" gridSize="10" guides="1" tooltips="1" connect="1" arrows="1" fold="1" page="1" pageScale="1" pageWidth="850" pageHeight="1100" math="0" shadow="0">
            <root>
                <mxCell id="0"/>
                <mxCell id="1" parent="0"/>
                <mxCell id="9" value="Neural Network" style="rounded=0;whiteSpace=wrap;html=1;align=left;verticalAlign=top;" vertex="1" parent="1">
                    <mxGeometry x="330" y="130" width="460" height="360" as="geometry"/>
                </mxCell>
                <mxCell id="2" value="Output Layer" style="rounded=0;whiteSpace=wrap;html=1;" vertex="1" parent="1">
                    <mxGeometry x="360" y="410" width="130" height="30" as="geometry"/>
                </mxCell>
                <mxCell id="3" value="Weights" style="rounded=0;whiteSpace=wrap;html=1;" vertex="1" parent="1">
                    <mxGeometry x="360" y="360" width="130" height="30" as="geometry"/>
                </mxCell>
                <mxCell id="4" value="Hidden Layer" style="rounded=0;whiteSpace=wrap;html=1;" vertex="1" parent="1">
                    <mxGeometry x="360" y="310" width="130" height="30" as="geometry"/>
                </mxCell>
                <mxCell id="5" value="Weights" style="rounded=0;whiteSpace=wrap;html=1;" vertex="1" parent="1">
                    <mxGeometry x="360" y="260" width="130" height="30" as="geometry"/>
                </mxCell>
                <mxCell id="6" value="Input Layer" style="rounded=0;whiteSpace=wrap;html=1;" vertex="1" parent="1">
                    <mxGeometry x="360" y="210" width="130" height="30" as="geometry"/>
                </mxCell>
                <mxCell id="7" value="Feed in" style="text;html=1;strokeColor=none;fillColor=none;align=center;verticalAlign=middle;whiteSpace=wrap;rounded=0;" vertex="1" parent="1">
                    <mxGeometry x="395" y="80" width="60" height="30" as="geometry"/>
                </mxCell>
                <mxCell id="8" value="Return" style="text;html=1;strokeColor=none;fillColor=none;align=center;verticalAlign=middle;whiteSpace=wrap;rounded=0;" vertex="1" parent="1">
                    <mxGeometry x="395" y="470" width="60" height="30" as="geometry"/>
                </mxCell>
                <mxCell id="10" value="Conceptual Operation" style="text;html=1;strokeColor=none;fillColor=none;align=center;verticalAlign=middle;whiteSpace=wrap;rounded=0;" vertex="1" parent="1">
                    <mxGeometry x="405" y="170" width="40" height="20" as="geometry"/>
                </mxCell>
                <mxCell id="11" value="NNLayer&amp;lt;Size, NextLayerSize, LastLayerSize&amp;gt;" style="rounded=0;whiteSpace=wrap;html=1;fontFamily=Helvetica;fontSize=12;fontColor=#f0f0f0;align=left;strokeColor=#f0f0f0;fillColor=#2a2a2a;verticalAlign=top;" vertex="1" parent="1">
                    <mxGeometry x="560" y="280" width="320" height="190" as="geometry"/>
                </mxCell>
                <mxCell id="12" value="WeightsBiases&amp;lt;Size,NextLayerSize&amp;gt;" style="rounded=0;whiteSpace=wrap;html=1;" vertex="1" parent="1">
                    <mxGeometry x="580" y="320" width="220" height="30" as="geometry"/>
                </mxCell>
                <mxCell id="13" value="NNLayer&amp;lt;NextLayerSize, ???, LastLayerSize&amp;gt;" style="rounded=0;whiteSpace=wrap;html=1;" vertex="1" parent="1">
                    <mxGeometry x="580" y="370" width="280" height="30" as="geometry"/>
                </mxCell>
                <mxCell id="14" value="Evaluate(Size input) -&amp;gt; LastLayerSize output" style="shape=parallelogram;perimeter=parallelogramPerimeter;whiteSpace=wrap;html=1;fixedSize=1;align=center;" vertex="1" parent="1">
                    <mxGeometry x="575" y="420" width="290" height="30" as="geometry"/>
                </mxCell>
                <mxCell id="15" value="NNLayer&amp;lt;Size, NextLayerSize, LastLayerSize&amp;gt;" style="rounded=0;whiteSpace=wrap;html=1;fontFamily=Helvetica;fontSize=12;fontColor=#f0f0f0;align=left;strokeColor=#f0f0f0;fillColor=#2a2a2a;verticalAlign=top;" vertex="1" parent="1">
                    <mxGeometry x="920" y="280" width="360" height="240" as="geometry"/>
                </mxCell>
                <mxCell id="16" value="WeightsBiases&amp;lt;Size,NextLayerSize&amp;gt;" style="rounded=0;whiteSpace=wrap;html=1;" vertex="1" parent="1">
                    <mxGeometry x="935" y="370" width="220" height="30" as="geometry"/>
                </mxCell>
                <mxCell id="17" value="Optional NNLayer&amp;lt;NextLayerSize, ???, LastLayerSize&amp;gt;" style="rounded=0;whiteSpace=wrap;html=1;" vertex="1" parent="1">
                    <mxGeometry x="935" y="420" width="325" height="30" as="geometry"/>
                </mxCell>
                <mxCell id="18" value="Evaluate(Size inputs) -&amp;gt; LastLayerSize output" style="shape=parallelogram;perimeter=parallelogramPerimeter;whiteSpace=wrap;html=1;fixedSize=1;align=center;" vertex="1" parent="1">
                    <mxGeometry x="935" y="470" width="325" height="30" as="geometry"/>
                </mxCell>
                <mxCell id="19" value="Activations&amp;lt;Size&amp;gt;" style="rounded=0;whiteSpace=wrap;html=1;" vertex="1" parent="1">
                    <mxGeometry x="935" y="320" width="115" height="30" as="geometry"/>
                </mxCell>
            </root>
        </mxGraphModel>
    </diagram>
</mxfile>